<svg width="38" height="38" viewBox="0 0 38 38" fill="none" xmlns="http://www.w3.org/2000/svg">
<path fill-rule="evenodd" clip-rule="evenodd" d="M10.4861 6.95162C15.921 6.46567 21.3885 6.46567 26.8234 6.95162L29.1671 7.16118C31.5032 7.37005 33.3907 9.15471 33.73 11.4754C34.4938 16.7 34.4938 22.0078 33.73 27.2324C33.3907 29.5531 31.5032 31.3378 29.1671 31.5466L26.8234 31.7562C21.3885 32.2421 15.921 32.2421 10.4861 31.7562L8.14233 31.5466C5.80624 31.3378 3.91875 29.5531 3.57946 27.2324C2.81564 22.0078 2.81564 16.7 3.57946 11.4754C3.91875 9.15471 5.80624 7.37005 8.14233 7.16118L10.4861 6.95162ZM9.1637 11.3829C8.80468 11.1896 8.37046 11.1993 8.0204 11.4084C7.67033 11.6175 7.45596 11.9952 7.45596 12.403V27.0772C7.45596 27.717 7.97464 28.2357 8.61446 28.2357C9.25427 28.2357 9.77295 27.717 9.77295 27.0772V14.3425L18.1055 18.8293C18.4484 19.0139 18.8611 19.0139 19.204 18.8293L27.5365 14.3425V27.0772C27.5365 27.717 28.0552 28.2357 28.695 28.2357C29.3348 28.2357 29.8535 27.717 29.8535 27.0772V12.403C29.8535 11.9952 29.6391 11.6175 29.289 11.4084C28.939 11.1993 28.5048 11.1896 28.1457 11.3829L18.6547 16.4935L9.1637 11.3829Z" fill="#203239"/>
</svg>
