<svg width="38" height="38" viewBox="0 0 38 38" fill="none" xmlns="http://www.w3.org/2000/svg">
<path d="M8.17533 16.0492C11.1355 22.4964 16.4028 27.6224 22.9514 30.4012L24.0012 30.8689C26.4028 31.939 29.2261 31.126 30.6909 28.9426L32.0627 26.898C32.5087 26.2332 32.3729 25.3378 31.7499 24.8352L27.0976 21.082C26.4143 20.5307 25.4095 20.6591 24.8867 21.3645L23.4475 23.3065C19.7545 21.4849 16.7563 18.4866 14.9346 14.7936L16.8766 13.3544C17.582 12.8317 17.7104 11.8269 17.1591 11.1435L13.4058 6.49112C12.9033 5.86819 12.0081 5.73231 11.3434 6.17805L9.28458 7.5585C7.08755 9.03166 6.27911 11.8782 7.37386 14.2863L8.17412 16.0466L8.17533 16.0492Z" fill="#203239"/>
</svg>
